<svg width="252" height="26" viewBox="0 0 252 26" fill="none" xmlns="http://www.w3.org/2000/svg">
<path fill-rule="evenodd" clip-rule="evenodd" d="M4.99967 5.83301C5.36786 5.83301 5.66634 6.13148 5.66634 6.49967V6.83302L10.333 6.83303V6.49967C10.333 6.13148 10.6315 5.83301 10.9997 5.83301C11.3679 5.83301 11.6663 6.13148 11.6663 6.49967V6.83303L12.4997 6.83303C13.9724 6.83303 15.1663 8.02694 15.1663 9.4997V17.4997C15.1663 18.9724 13.9724 20.1663 12.4997 20.1663L3.49967 20.1663C2.02691 20.1663 0.833008 18.9724 0.833008 17.4997L0.833008 10.9998L0.833008 9.49968C0.833008 8.02692 2.02692 6.83301 3.49968 6.83301L4.33301 6.83301V6.49967C4.33301 6.13148 4.63148 5.83301 4.99967 5.83301ZM4.33301 8.16635L3.49968 8.16634C2.7633 8.16634 2.16634 8.7633 2.16634 9.49968V10.333H13.833V9.4997C13.833 8.76332 13.2361 8.16636 12.4997 8.16636L11.6663 8.16636V8.49967C11.6663 8.86786 11.3679 9.16634 10.9997 9.16634C10.6315 9.16634 10.333 8.86786 10.333 8.49967V8.16636L5.66634 8.16635V8.49967C5.66634 8.86786 5.36786 9.16634 4.99967 9.16634C4.63148 9.16634 4.33301 8.86786 4.33301 8.49967V8.16635ZM13.833 11.6663H2.16634L2.16634 17.4997C2.16634 18.2361 2.76329 18.833 3.49967 18.833L12.4997 18.833C13.2361 18.833 13.833 18.2361 13.833 17.4997V11.6663Z" fill="#787A80"/>
<path d="M34.824 19H33.624C33.4853 19 33.3733 18.9653 33.288 18.896C33.2027 18.8267 33.1387 18.7387 33.096 18.632L32.024 15.864H26.88L25.808 18.632C25.7707 18.728 25.7067 18.8133 25.616 18.888C25.5253 18.9627 25.4133 19 25.28 19H24.08L28.664 7.536H30.24L34.824 19ZM27.312 14.744H31.592L29.792 10.08C29.6747 9.792 29.56 9.432 29.448 9C29.3893 9.21867 29.3307 9.42133 29.272 9.608C29.2187 9.78933 29.1653 9.94933 29.112 10.088L27.312 14.744ZM37.275 10.896V16.064C37.275 16.6773 37.4163 17.152 37.699 17.488C37.9817 17.824 38.4083 17.992 38.979 17.992C39.395 17.992 39.787 17.8933 40.155 17.696C40.523 17.4987 40.8617 17.224 41.171 16.872V10.896H42.595V19H41.747C41.5443 19 41.4163 18.9013 41.363 18.704L41.251 17.832C40.899 18.2213 40.5043 18.536 40.067 18.776C39.6297 19.0107 39.1283 19.128 38.563 19.128C38.1203 19.128 37.7283 19.056 37.387 18.912C37.051 18.7627 36.7683 18.5547 36.539 18.288C36.3097 18.0213 36.1363 17.6987 36.019 17.32C35.907 16.9413 35.851 16.5227 35.851 16.064V10.896H37.275ZM47.6616 10.76C48.0136 10.76 48.3416 10.8 48.6456 10.88C48.955 10.9547 49.235 11.0667 49.4856 11.216H51.6856V11.744C51.6856 11.92 51.5736 12.032 51.3496 12.08L50.4296 12.208C50.611 12.5547 50.7016 12.9413 50.7016 13.368C50.7016 13.7627 50.6243 14.1227 50.4696 14.448C50.3203 14.768 50.1096 15.0427 49.8376 15.272C49.571 15.5013 49.251 15.6773 48.8776 15.8C48.5096 15.9227 48.1043 15.984 47.6616 15.984C47.283 15.984 46.9256 15.9387 46.5896 15.848C46.419 15.9547 46.2883 16.0693 46.1976 16.192C46.1123 16.3147 46.0696 16.4347 46.0696 16.552C46.0696 16.744 46.147 16.8907 46.3016 16.992C46.4563 17.088 46.6616 17.1573 46.9176 17.2C47.1736 17.2427 47.4643 17.2693 47.7896 17.28C48.115 17.2907 48.4456 17.3093 48.7816 17.336C49.123 17.3573 49.4563 17.3973 49.7816 17.456C50.107 17.5147 50.3976 17.6107 50.6536 17.744C50.9096 17.8773 51.115 18.0613 51.2696 18.296C51.4243 18.5307 51.5016 18.8347 51.5016 19.208C51.5016 19.5547 51.4136 19.8907 51.2376 20.216C51.067 20.5413 50.819 20.8293 50.4936 21.08C50.1683 21.336 49.771 21.5387 49.3016 21.688C48.8323 21.8427 48.3016 21.92 47.7096 21.92C47.1176 21.92 46.5976 21.8613 46.1496 21.744C45.707 21.6267 45.339 21.4693 45.0456 21.272C44.7523 21.0747 44.531 20.8453 44.3816 20.584C44.2376 20.328 44.1656 20.0587 44.1656 19.776C44.1656 19.376 44.291 19.0373 44.5416 18.76C44.7976 18.4773 45.147 18.2533 45.5896 18.088C45.3603 17.9813 45.1763 17.84 45.0376 17.664C44.9043 17.4827 44.8376 17.2427 44.8376 16.944C44.8376 16.8267 44.859 16.7067 44.9016 16.584C44.9443 16.456 45.0083 16.3307 45.0936 16.208C45.1843 16.0853 45.2936 15.968 45.4216 15.856C45.5496 15.744 45.699 15.6453 45.8696 15.56C45.4696 15.336 45.155 15.04 44.9256 14.672C44.7016 14.2987 44.5896 13.864 44.5896 13.368C44.5896 12.9733 44.6643 12.616 44.8136 12.296C44.9683 11.9707 45.1816 11.696 45.4536 11.472C45.7256 11.2427 46.0483 11.0667 46.4216 10.944C46.8003 10.8213 47.2136 10.76 47.6616 10.76ZM50.1896 19.44C50.1896 19.2373 50.1336 19.0747 50.0216 18.952C49.9096 18.8293 49.7576 18.736 49.5656 18.672C49.3736 18.6027 49.1523 18.552 48.9016 18.52C48.651 18.488 48.387 18.4667 48.1096 18.456C47.8323 18.44 47.5496 18.424 47.2616 18.408C46.9736 18.392 46.699 18.3627 46.4376 18.32C46.1336 18.464 45.8856 18.64 45.6936 18.848C45.507 19.056 45.4136 19.304 45.4136 19.592C45.4136 19.7733 45.459 19.9413 45.5496 20.096C45.6456 20.256 45.7896 20.392 45.9816 20.504C46.1736 20.6213 46.4136 20.712 46.7016 20.776C46.995 20.8453 47.339 20.88 47.7336 20.88C48.1176 20.88 48.4616 20.8453 48.7656 20.776C49.0696 20.7067 49.3256 20.608 49.5336 20.48C49.747 20.352 49.9096 20.2 50.0216 20.024C50.1336 19.848 50.1896 19.6533 50.1896 19.44ZM47.6616 15.04C47.9496 15.04 48.203 15 48.4216 14.92C48.6456 14.84 48.8323 14.728 48.9816 14.584C49.131 14.44 49.243 14.2693 49.3176 14.072C49.3923 13.8693 49.4296 13.648 49.4296 13.408C49.4296 12.912 49.2776 12.5173 48.9736 12.224C48.675 11.9307 48.2376 11.784 47.6616 11.784C47.091 11.784 46.6536 11.9307 46.3496 12.224C46.051 12.5173 45.9016 12.912 45.9016 13.408C45.9016 13.648 45.939 13.8693 46.0136 14.072C46.0936 14.2693 46.2083 14.44 46.3576 14.584C46.507 14.728 46.691 14.84 46.9096 14.92C47.1283 15 47.379 15.04 47.6616 15.04ZM54.3375 10.896V16.064C54.3375 16.6773 54.4788 17.152 54.7615 17.488C55.0442 17.824 55.4708 17.992 56.0415 17.992C56.4575 17.992 56.8495 17.8933 57.2175 17.696C57.5855 17.4987 57.9242 17.224 58.2335 16.872V10.896H59.6575V19H58.8095C58.6068 19 58.4788 18.9013 58.4255 18.704L58.3135 17.832C57.9615 18.2213 57.5668 18.536 57.1295 18.776C56.6922 19.0107 56.1908 19.128 55.6255 19.128C55.1828 19.128 54.7908 19.056 54.4495 18.912C54.1135 18.7627 53.8308 18.5547 53.6015 18.288C53.3722 18.0213 53.1988 17.6987 53.0815 17.32C52.9695 16.9413 52.9135 16.5227 52.9135 16.064V10.896H54.3375ZM66.6361 12.232C66.5721 12.3493 66.4735 12.408 66.3401 12.408C66.2601 12.408 66.1695 12.3787 66.0681 12.32C65.9668 12.2613 65.8415 12.1973 65.6921 12.128C65.5481 12.0533 65.3748 11.9867 65.1721 11.928C64.9695 11.864 64.7295 11.832 64.4521 11.832C64.2121 11.832 63.9961 11.864 63.8041 11.928C63.6121 11.9867 63.4468 12.0693 63.3081 12.176C63.1748 12.2827 63.0708 12.408 62.9961 12.552C62.9268 12.6907 62.8921 12.8427 62.8921 13.008C62.8921 13.216 62.9508 13.3893 63.0681 13.528C63.1908 13.6667 63.3508 13.7867 63.5481 13.888C63.7455 13.9893 63.9695 14.08 64.2201 14.16C64.4708 14.2347 64.7268 14.3173 64.9881 14.408C65.2548 14.4933 65.5135 14.5893 65.7641 14.696C66.0148 14.8027 66.2388 14.936 66.4361 15.096C66.6335 15.256 66.7908 15.4533 66.9081 15.688C67.0308 15.9173 67.0921 16.1947 67.0921 16.52C67.0921 16.8933 67.0255 17.24 66.8921 17.56C66.7588 17.8747 66.5615 18.1493 66.3001 18.384C66.0388 18.6133 65.7188 18.7947 65.3401 18.928C64.9615 19.0613 64.5241 19.128 64.0281 19.128C63.4628 19.128 62.9508 19.0373 62.4921 18.856C62.0335 18.6693 61.6441 18.432 61.3241 18.144L61.6601 17.6C61.7028 17.5307 61.7535 17.4773 61.8121 17.44C61.8708 17.4027 61.9481 17.384 62.0441 17.384C62.1401 17.384 62.2415 17.4213 62.3481 17.496C62.4548 17.5707 62.5828 17.6533 62.7321 17.744C62.8868 17.8347 63.0708 17.9173 63.2841 17.992C63.5028 18.0667 63.7748 18.104 64.1001 18.104C64.3775 18.104 64.6201 18.0693 64.8281 18C65.0361 17.9253 65.2095 17.8267 65.3481 17.704C65.4868 17.5813 65.5881 17.44 65.6521 17.28C65.7215 17.12 65.7561 16.9493 65.7561 16.768C65.7561 16.544 65.6948 16.36 65.5721 16.216C65.4548 16.0667 65.2975 15.9413 65.1001 15.84C64.9028 15.7333 64.6761 15.6427 64.4201 15.568C64.1695 15.488 63.9108 15.4053 63.6441 15.32C63.3828 15.2347 63.1241 15.1387 62.8681 15.032C62.6175 14.92 62.3935 14.7813 62.1961 14.616C61.9988 14.4507 61.8388 14.248 61.7161 14.008C61.5988 13.7627 61.5401 13.4667 61.5401 13.12C61.5401 12.8107 61.6041 12.5147 61.7321 12.232C61.8601 11.944 62.0468 11.6933 62.2921 11.48C62.5375 11.2613 62.8388 11.088 63.1961 10.96C63.5535 10.832 63.9615 10.768 64.4201 10.768C64.9535 10.768 65.4308 10.8533 65.8521 11.024C66.2788 11.1893 66.6468 11.4187 66.9561 11.712L66.6361 12.232ZM71.3896 19.128C70.7496 19.128 70.2563 18.9493 69.9096 18.592C69.5683 18.2347 69.3976 17.72 69.3976 17.048V12.088H68.4216C68.3363 12.088 68.2643 12.064 68.2056 12.016C68.147 11.9627 68.1176 11.8827 68.1176 11.776V11.208L69.4456 11.04L69.7736 8.536C69.7843 8.456 69.819 8.392 69.8776 8.344C69.9363 8.29067 70.011 8.264 70.1016 8.264H70.8216V11.056H73.1416V12.088H70.8216V16.952C70.8216 17.2933 70.9043 17.5467 71.0696 17.712C71.235 17.8773 71.4483 17.96 71.7096 17.96C71.859 17.96 71.987 17.9413 72.0936 17.904C72.2056 17.8613 72.3016 17.816 72.3816 17.768C72.4616 17.72 72.5283 17.6773 72.5816 17.64C72.6403 17.5973 72.691 17.576 72.7336 17.576C72.8083 17.576 72.875 17.6213 72.9336 17.712L73.3496 18.392C73.1043 18.6213 72.8083 18.8027 72.4616 18.936C72.115 19.064 71.7576 19.128 71.3896 19.128ZM81.7881 7.408C82.2735 7.408 82.7215 7.47733 83.1321 7.616C83.5428 7.75467 83.8948 7.952 84.1881 8.208C84.4868 8.464 84.7188 8.77333 84.8841 9.136C85.0495 9.49867 85.1321 9.90133 85.1321 10.344C85.1321 10.7067 85.0841 11.032 84.9881 11.32C84.8975 11.6027 84.7641 11.8533 84.5881 12.072C84.4175 12.2853 84.2095 12.4667 83.9641 12.616C83.7188 12.7653 83.4441 12.8853 83.1401 12.976C83.8868 13.1733 84.4468 13.504 84.8201 13.968C85.1988 14.432 85.3881 15.0133 85.3881 15.712C85.3881 16.24 85.2868 16.7147 85.0841 17.136C84.8868 17.5573 84.6148 17.9173 84.2681 18.216C83.9215 18.5093 83.5161 18.736 83.0521 18.896C82.5935 19.0507 82.1001 19.128 81.5721 19.128C80.9641 19.128 80.4441 19.0533 80.0121 18.904C79.5801 18.7493 79.2148 18.5387 78.9161 18.272C78.6175 18.0053 78.3721 17.6907 78.1801 17.328C77.9881 16.96 77.8255 16.5627 77.6921 16.136L78.3001 15.88C78.4121 15.832 78.5241 15.808 78.6361 15.808C78.7428 15.808 78.8361 15.832 78.9161 15.88C79.0015 15.9227 79.0655 15.992 79.1081 16.088C79.1188 16.1093 79.1295 16.1333 79.1401 16.16C79.1508 16.1813 79.1615 16.2053 79.1721 16.232C79.2468 16.3867 79.3375 16.5627 79.4441 16.76C79.5508 16.952 79.6948 17.1333 79.8761 17.304C80.0575 17.4747 80.2815 17.6187 80.5481 17.736C80.8201 17.8533 81.1561 17.912 81.5561 17.912C81.9561 17.912 82.3055 17.848 82.6041 17.72C82.9081 17.5867 83.1588 17.416 83.3561 17.208C83.5588 17 83.7108 16.768 83.8121 16.512C83.9135 16.256 83.9641 16.0027 83.9641 15.752C83.9641 15.4427 83.9215 15.16 83.8361 14.904C83.7561 14.648 83.6068 14.4267 83.3881 14.24C83.1748 14.0533 82.8761 13.9067 82.4921 13.8C82.1135 13.6933 81.6255 13.64 81.0281 13.64V12.608C81.5135 12.6027 81.9268 12.5493 82.2681 12.448C82.6148 12.3467 82.8975 12.208 83.1161 12.032C83.3348 11.856 83.4921 11.6453 83.5881 11.4C83.6895 11.1547 83.7401 10.8827 83.7401 10.584C83.7401 10.2533 83.6868 9.96533 83.5801 9.72C83.4788 9.47467 83.3375 9.272 83.1561 9.112C82.9748 8.952 82.7588 8.832 82.5081 8.752C82.2628 8.672 81.9961 8.632 81.7081 8.632C81.4201 8.632 81.1535 8.67467 80.9081 8.76C80.6628 8.84533 80.4441 8.96533 80.2521 9.12C80.0655 9.26933 79.9081 9.45067 79.7801 9.664C79.6521 9.872 79.5561 10.0987 79.4921 10.344C79.4495 10.4987 79.3855 10.6107 79.3001 10.68C79.2148 10.7493 79.1055 10.784 78.9721 10.784C78.9455 10.784 78.9161 10.784 78.8841 10.784C78.8575 10.7787 78.8255 10.7733 78.7881 10.768L78.0441 10.64C78.1188 10.1173 78.2628 9.656 78.4761 9.256C78.6895 8.85067 78.9588 8.512 79.2841 8.24C79.6148 7.968 79.9908 7.76267 80.4121 7.624C80.8388 7.48 81.2975 7.408 81.7881 7.408ZM86.8614 18.016C86.8614 17.8933 86.8827 17.7787 86.9254 17.672C86.9734 17.56 87.0374 17.464 87.1174 17.384C87.2027 17.2987 87.304 17.232 87.4214 17.184C87.5387 17.136 87.6667 17.112 87.8054 17.112C87.9654 17.112 88.1067 17.1413 88.2294 17.2C88.3574 17.2587 88.4614 17.3413 88.5414 17.448C88.6267 17.5493 88.6907 17.6693 88.7334 17.808C88.776 17.9413 88.7974 18.088 88.7974 18.248C88.7974 18.488 88.7627 18.7387 88.6934 19C88.624 19.256 88.5254 19.5093 88.3974 19.76C88.2694 20.016 88.1094 20.264 87.9174 20.504C87.7307 20.744 87.5174 20.9653 87.2774 21.168L87.0374 20.936C86.968 20.872 86.9334 20.7973 86.9334 20.712C86.9334 20.6427 86.9707 20.5707 87.0454 20.496C87.0987 20.4373 87.1654 20.3573 87.2454 20.256C87.3307 20.16 87.416 20.048 87.5014 19.92C87.5867 19.792 87.664 19.6507 87.7334 19.496C87.808 19.3413 87.8614 19.176 87.8934 19H87.7894C87.6507 19 87.5254 18.976 87.4134 18.928C87.3014 18.88 87.2027 18.8133 87.1174 18.728C87.0374 18.6373 86.9734 18.5333 86.9254 18.416C86.8827 18.2933 86.8614 18.16 86.8614 18.016ZM97.4018 7.408C97.8871 7.408 98.3404 7.48 98.7618 7.624C99.1831 7.768 99.5458 7.97867 99.8498 8.256C100.159 8.528 100.402 8.86133 100.578 9.256C100.754 9.65067 100.842 10.0987 100.842 10.6C100.842 11.0267 100.778 11.4213 100.65 11.784C100.522 12.1467 100.348 12.496 100.13 12.832C99.9111 13.1627 99.6578 13.4853 99.3698 13.8C99.0871 14.1093 98.7858 14.4267 98.4658 14.752L95.4498 17.84C95.6631 17.7813 95.8791 17.736 96.0978 17.704C96.3164 17.6667 96.5271 17.648 96.7298 17.648H100.57C100.724 17.648 100.847 17.6933 100.938 17.784C101.028 17.8747 101.074 17.992 101.074 18.136V19H93.4258V18.512C93.4258 18.4107 93.4444 18.3067 93.4818 18.2C93.5244 18.0933 93.5911 17.9947 93.6818 17.904L97.3538 14.216C97.6578 13.9067 97.9351 13.6107 98.1858 13.328C98.4364 13.04 98.6498 12.752 98.8258 12.464C99.0071 12.176 99.1458 11.8853 99.2418 11.592C99.3378 11.2933 99.3858 10.976 99.3858 10.64C99.3858 10.304 99.3324 10.0107 99.2258 9.76C99.1191 9.504 98.9724 9.29333 98.7858 9.128C98.5991 8.96267 98.3804 8.84 98.1298 8.76C97.8791 8.67467 97.6098 8.632 97.3218 8.632C97.0338 8.632 96.7671 8.67467 96.5218 8.76C96.2764 8.84533 96.0578 8.96533 95.8658 9.12C95.6791 9.26933 95.5191 9.448 95.3858 9.656C95.2578 9.864 95.1671 10.0933 95.1138 10.344C95.0711 10.4987 95.0071 10.6107 94.9218 10.68C94.8364 10.7493 94.7244 10.784 94.5858 10.784C94.5591 10.784 94.5298 10.784 94.4978 10.784C94.4711 10.7787 94.4391 10.7733 94.4018 10.768L93.6578 10.64C93.7324 10.1173 93.8764 9.656 94.0898 9.256C94.3031 8.85067 94.5724 8.512 94.8978 8.24C95.2284 7.968 95.6044 7.76267 96.0258 7.624C96.4524 7.48 96.9111 7.408 97.4018 7.408ZM110.675 13.272C110.675 14.2747 110.566 15.144 110.347 15.88C110.134 16.6107 109.84 17.216 109.467 17.696C109.094 18.176 108.651 18.5333 108.139 18.768C107.632 19.0027 107.088 19.12 106.507 19.12C105.92 19.12 105.374 19.0027 104.867 18.768C104.366 18.5333 103.928 18.176 103.555 17.696C103.182 17.216 102.888 16.6107 102.675 15.88C102.462 15.144 102.355 14.2747 102.355 13.272C102.355 12.2693 102.462 11.4 102.675 10.664C102.888 9.928 103.182 9.32 103.555 8.84C103.928 8.35467 104.366 7.99467 104.867 7.76C105.374 7.52533 105.92 7.408 106.507 7.408C107.088 7.408 107.632 7.52533 108.139 7.76C108.651 7.99467 109.094 8.35467 109.467 8.84C109.84 9.32 110.134 9.928 110.347 10.664C110.566 11.4 110.675 12.2693 110.675 13.272ZM109.195 13.272C109.195 12.3973 109.12 11.664 108.971 11.072C108.827 10.4747 108.63 9.99467 108.379 9.632C108.134 9.26933 107.848 9.01067 107.523 8.856C107.198 8.696 106.859 8.616 106.507 8.616C106.155 8.616 105.816 8.696 105.491 8.856C105.166 9.01067 104.88 9.26933 104.635 9.632C104.39 9.99467 104.192 10.4747 104.043 11.072C103.899 11.664 103.827 12.3973 103.827 13.272C103.827 14.1467 103.899 14.88 104.043 15.472C104.192 16.064 104.39 16.5413 104.635 16.904C104.88 17.2667 105.166 17.528 105.491 17.688C105.816 17.8427 106.155 17.92 106.507 17.92C106.859 17.92 107.198 17.8427 107.523 17.688C107.848 17.528 108.134 17.2667 108.379 16.904C108.63 16.5413 108.827 16.064 108.971 15.472C109.12 14.88 109.195 14.1467 109.195 13.272ZM115.964 7.408C116.45 7.408 116.903 7.48 117.324 7.624C117.746 7.768 118.108 7.97867 118.412 8.256C118.722 8.528 118.964 8.86133 119.14 9.256C119.316 9.65067 119.404 10.0987 119.404 10.6C119.404 11.0267 119.34 11.4213 119.212 11.784C119.084 12.1467 118.911 12.496 118.692 12.832C118.474 13.1627 118.22 13.4853 117.932 13.8C117.65 14.1093 117.348 14.4267 117.028 14.752L114.012 17.84C114.226 17.7813 114.442 17.736 114.66 17.704C114.879 17.6667 115.09 17.648 115.292 17.648H119.132C119.287 17.648 119.41 17.6933 119.5 17.784C119.591 17.8747 119.636 17.992 119.636 18.136V19H111.988V18.512C111.988 18.4107 112.007 18.3067 112.044 18.2C112.087 18.0933 112.154 17.9947 112.244 17.904L115.916 14.216C116.22 13.9067 116.498 13.6107 116.748 13.328C116.999 13.04 117.212 12.752 117.388 12.464C117.57 12.176 117.708 11.8853 117.804 11.592C117.9 11.2933 117.948 10.976 117.948 10.64C117.948 10.304 117.895 10.0107 117.788 9.76C117.682 9.504 117.535 9.29333 117.348 9.128C117.162 8.96267 116.943 8.84 116.692 8.76C116.442 8.67467 116.172 8.632 115.884 8.632C115.596 8.632 115.33 8.67467 115.084 8.76C114.839 8.84533 114.62 8.96533 114.428 9.12C114.242 9.26933 114.082 9.448 113.948 9.656C113.82 9.864 113.73 10.0933 113.676 10.344C113.634 10.4987 113.57 10.6107 113.484 10.68C113.399 10.7493 113.287 10.784 113.148 10.784C113.122 10.784 113.092 10.784 113.06 10.784C113.034 10.7787 113.002 10.7733 112.964 10.768L112.22 10.64C112.295 10.1173 112.439 9.656 112.652 9.256C112.866 8.85067 113.135 8.512 113.46 8.24C113.791 7.968 114.167 7.76267 114.588 7.624C115.015 7.48 115.474 7.408 115.964 7.408ZM129.238 13.272C129.238 14.2747 129.128 15.144 128.91 15.88C128.696 16.6107 128.403 17.216 128.03 17.696C127.656 18.176 127.214 18.5333 126.702 18.768C126.195 19.0027 125.651 19.12 125.07 19.12C124.483 19.12 123.936 19.0027 123.43 18.768C122.928 18.5333 122.491 18.176 122.118 17.696C121.744 17.216 121.451 16.6107 121.238 15.88C121.024 15.144 120.918 14.2747 120.918 13.272C120.918 12.2693 121.024 11.4 121.238 10.664C121.451 9.928 121.744 9.32 122.118 8.84C122.491 8.35467 122.928 7.99467 123.43 7.76C123.936 7.52533 124.483 7.408 125.07 7.408C125.651 7.408 126.195 7.52533 126.702 7.76C127.214 7.99467 127.656 8.35467 128.03 8.84C128.403 9.32 128.696 9.928 128.91 10.664C129.128 11.4 129.238 12.2693 129.238 13.272ZM127.758 13.272C127.758 12.3973 127.683 11.664 127.534 11.072C127.39 10.4747 127.192 9.99467 126.942 9.632C126.696 9.26933 126.411 9.01067 126.086 8.856C125.76 8.696 125.422 8.616 125.07 8.616C124.718 8.616 124.379 8.696 124.054 8.856C123.728 9.01067 123.443 9.26933 123.198 9.632C122.952 9.99467 122.755 10.4747 122.606 11.072C122.462 11.664 122.39 12.3973 122.39 13.272C122.39 14.1467 122.462 14.88 122.606 15.472C122.755 16.064 122.952 16.5413 123.198 16.904C123.443 17.2667 123.728 17.528 124.054 17.688C124.379 17.8427 124.718 17.92 125.07 17.92C125.422 17.92 125.76 17.8427 126.086 17.688C126.411 17.528 126.696 17.2667 126.942 16.904C127.192 16.5413 127.39 16.064 127.534 15.472C127.683 14.88 127.758 14.1467 127.758 13.272Z" fill="#787A80"/>
<path d="M162.667 9.33366C162.667 8.96547 162.369 8.66699 162 8.66699C161.632 8.66699 161.334 8.96547 161.334 9.33366V13.0003C161.334 13.1771 161.404 13.3467 161.529 13.4717L163.529 15.4717C163.789 15.7321 164.211 15.7321 164.472 15.4717C164.732 15.2114 164.732 14.7893 164.472 14.5289L162.667 12.7242V9.33366Z" fill="#787A80"/>
<path fill-rule="evenodd" clip-rule="evenodd" d="M162 5.66699C157.95 5.66699 154.667 8.95024 154.667 13.0003C154.667 17.0504 157.95 20.3337 162 20.3337C166.05 20.3337 169.334 17.0504 169.334 13.0003C169.334 8.95024 166.05 5.66699 162 5.66699ZM156 13.0003C156 9.68662 158.687 7.00033 162 7.00033C165.314 7.00033 168 9.68662 168 13.0003C168 16.314 165.314 19.0003 162 19.0003C158.687 19.0003 156 16.314 156 13.0003Z" fill="#787A80"/>
<path d="M185.224 14.864H186.96V15.68C186.96 15.7653 186.933 15.8373 186.88 15.896C186.832 15.9547 186.755 15.984 186.648 15.984H185.224V19H183.968V15.984H178.888C178.781 15.984 178.688 15.9547 178.608 15.896C178.533 15.832 178.485 15.7547 178.464 15.664L178.32 14.936L183.896 7.536H185.224V14.864ZM183.968 10.136C183.968 9.99733 183.971 9.848 183.976 9.688C183.987 9.528 184.005 9.36267 184.032 9.192L179.864 14.864H183.968V10.136ZM191.543 19V10.896H192.391C192.594 10.896 192.722 10.9947 192.775 11.192L192.879 12.024C193.178 11.656 193.511 11.3547 193.879 11.12C194.252 10.8853 194.684 10.768 195.175 10.768C195.724 10.768 196.167 10.92 196.503 11.224C196.844 11.528 197.09 11.9387 197.239 12.456C197.351 12.1627 197.498 11.9093 197.679 11.696C197.866 11.4827 198.074 11.3067 198.303 11.168C198.532 11.0293 198.775 10.928 199.031 10.864C199.292 10.8 199.556 10.768 199.823 10.768C200.25 10.768 200.628 10.8373 200.959 10.976C201.295 11.1093 201.578 11.3067 201.807 11.568C202.042 11.8293 202.22 12.152 202.343 12.536C202.466 12.9147 202.527 13.3493 202.527 13.84V19H201.103V13.84C201.103 13.2053 200.964 12.7253 200.687 12.4C200.41 12.0693 200.007 11.904 199.479 11.904C199.244 11.904 199.02 11.9467 198.807 12.032C198.599 12.112 198.415 12.232 198.255 12.392C198.095 12.552 197.967 12.7547 197.871 13C197.78 13.24 197.735 13.52 197.735 13.84V19H196.311V13.84C196.311 13.1893 196.18 12.704 195.919 12.384C195.658 12.064 195.276 11.904 194.775 11.904C194.423 11.904 194.095 12 193.791 12.192C193.492 12.3787 193.218 12.6347 192.967 12.96V19H191.543ZM206.268 10.896V19H204.844V10.896H206.268ZM206.588 8.352C206.588 8.49067 206.558 8.62133 206.5 8.744C206.446 8.86133 206.372 8.968 206.276 9.064C206.185 9.15467 206.078 9.22667 205.956 9.28C205.833 9.33333 205.702 9.36 205.564 9.36C205.425 9.36 205.294 9.33333 205.172 9.28C205.054 9.22667 204.948 9.15467 204.852 9.064C204.761 8.968 204.689 8.86133 204.636 8.744C204.582 8.62133 204.556 8.49067 204.556 8.352C204.556 8.21333 204.582 8.08267 204.636 7.96C204.689 7.832 204.761 7.72267 204.852 7.632C204.948 7.536 205.054 7.46133 205.172 7.408C205.294 7.35467 205.425 7.328 205.564 7.328C205.702 7.328 205.833 7.35467 205.956 7.408C206.078 7.46133 206.185 7.536 206.276 7.632C206.372 7.72267 206.446 7.832 206.5 7.96C206.558 8.08267 206.588 8.21333 206.588 8.352ZM208.777 19V10.896H209.625C209.828 10.896 209.956 10.9947 210.009 11.192L210.121 12.072C210.473 11.6827 210.865 11.368 211.297 11.128C211.735 10.888 212.239 10.768 212.809 10.768C213.252 10.768 213.641 10.8427 213.977 10.992C214.319 11.136 214.601 11.344 214.825 11.616C215.055 11.8827 215.228 12.2053 215.345 12.584C215.463 12.9627 215.521 13.3813 215.521 13.84V19H214.097V13.84C214.097 13.2267 213.956 12.752 213.673 12.416C213.396 12.0747 212.969 11.904 212.393 11.904C211.972 11.904 211.577 12.0053 211.209 12.208C210.847 12.4107 210.511 12.6853 210.201 13.032V19H208.777ZM220.762 19V10.896H221.578C221.732 10.896 221.839 10.9253 221.898 10.984C221.956 11.0427 221.996 11.144 222.018 11.288L222.114 12.552C222.391 11.9867 222.732 11.5467 223.138 11.232C223.548 10.912 224.028 10.752 224.578 10.752C224.802 10.752 225.004 10.7787 225.186 10.832C225.367 10.88 225.535 10.9493 225.69 11.04L225.506 12.104C225.468 12.2373 225.386 12.304 225.258 12.304C225.183 12.304 225.068 12.28 224.914 12.232C224.759 12.1787 224.543 12.152 224.266 12.152C223.77 12.152 223.354 12.296 223.018 12.584C222.687 12.872 222.41 13.2907 222.186 13.84V19H220.762ZM230.423 10.768C230.908 10.768 231.356 10.8507 231.767 11.016C232.178 11.176 232.532 11.4107 232.831 11.72C233.13 12.024 233.362 12.4027 233.527 12.856C233.698 13.304 233.783 13.816 233.783 14.392C233.783 14.616 233.759 14.7653 233.711 14.84C233.663 14.9147 233.572 14.952 233.439 14.952H228.047C228.058 15.464 228.127 15.9093 228.255 16.288C228.383 16.6667 228.559 16.984 228.783 17.24C229.007 17.4907 229.274 17.68 229.583 17.808C229.892 17.9307 230.239 17.992 230.623 17.992C230.98 17.992 231.287 17.952 231.543 17.872C231.804 17.7867 232.028 17.696 232.215 17.6C232.402 17.504 232.556 17.416 232.679 17.336C232.807 17.2507 232.916 17.208 233.007 17.208C233.124 17.208 233.215 17.2533 233.279 17.344L233.679 17.864C233.503 18.0773 233.292 18.264 233.047 18.424C232.802 18.5787 232.538 18.7067 232.255 18.808C231.978 18.9093 231.69 18.984 231.391 19.032C231.092 19.0853 230.796 19.112 230.503 19.112C229.943 19.112 229.426 19.0187 228.951 18.832C228.482 18.64 228.074 18.3627 227.727 18C227.386 17.632 227.119 17.1787 226.927 16.64C226.735 16.1013 226.639 15.4827 226.639 14.784C226.639 14.2187 226.724 13.6907 226.895 13.2C227.071 12.7093 227.322 12.2853 227.647 11.928C227.972 11.5653 228.37 11.2827 228.839 11.08C229.308 10.872 229.836 10.768 230.423 10.768ZM230.455 11.816C229.767 11.816 229.226 12.016 228.831 12.416C228.436 12.8107 228.191 13.36 228.095 14.064H232.503C232.503 13.7333 232.458 13.432 232.367 13.16C232.276 12.8827 232.143 12.6453 231.967 12.448C231.791 12.2453 231.575 12.0907 231.319 11.984C231.068 11.872 230.78 11.816 230.455 11.816ZM241.558 19H240.926C240.787 19 240.675 18.9787 240.59 18.936C240.504 18.8933 240.448 18.8027 240.422 18.664L240.262 17.912C240.048 18.104 239.84 18.2773 239.638 18.432C239.435 18.5813 239.222 18.7093 238.998 18.816C238.774 18.9173 238.534 18.9947 238.278 19.048C238.027 19.1013 237.747 19.128 237.438 19.128C237.123 19.128 236.827 19.0853 236.549 19C236.278 18.9093 236.04 18.776 235.838 18.6C235.635 18.424 235.472 18.2027 235.35 17.936C235.232 17.664 235.174 17.344 235.174 16.976C235.174 16.656 235.262 16.3493 235.438 16.056C235.614 15.7573 235.896 15.4933 236.286 15.264C236.68 15.0347 237.195 14.848 237.83 14.704C238.464 14.5547 239.24 14.4693 240.158 14.448V13.816C240.158 13.1867 240.022 12.712 239.75 12.392C239.483 12.0667 239.086 11.904 238.558 11.904C238.211 11.904 237.918 11.9493 237.678 12.04C237.443 12.1253 237.238 12.224 237.062 12.336C236.891 12.4427 236.742 12.5413 236.614 12.632C236.491 12.7173 236.368 12.76 236.246 12.76C236.15 12.76 236.064 12.736 235.99 12.688C235.92 12.6347 235.864 12.5707 235.822 12.496L235.566 12.04C236.014 11.608 236.496 11.2853 237.014 11.072C237.531 10.8587 238.104 10.752 238.734 10.752C239.187 10.752 239.59 10.8267 239.942 10.976C240.294 11.1253 240.59 11.3333 240.83 11.6C241.07 11.8667 241.251 12.1893 241.374 12.568C241.496 12.9467 241.558 13.3627 241.558 13.816V19ZM237.862 18.128C238.112 18.128 238.342 18.104 238.549 18.056C238.758 18.0027 238.952 17.9307 239.134 17.84C239.32 17.744 239.496 17.6293 239.662 17.496C239.832 17.3627 239.998 17.2107 240.158 17.04V15.352C239.502 15.3733 238.944 15.4267 238.486 15.512C238.027 15.592 237.654 15.6987 237.366 15.832C237.078 15.9653 236.867 16.1227 236.734 16.304C236.606 16.4853 236.542 16.688 236.542 16.912C236.542 17.1253 236.576 17.3093 236.646 17.464C236.715 17.6187 236.808 17.7467 236.926 17.848C237.043 17.944 237.182 18.016 237.342 18.064C237.502 18.1067 237.675 18.128 237.862 18.128ZM249.419 19C249.216 19 249.088 18.9013 249.035 18.704L248.907 17.72C248.56 18.1413 248.163 18.48 247.715 18.736C247.272 18.9867 246.763 19.112 246.187 19.112C245.723 19.112 245.302 19.024 244.923 18.848C244.544 18.6667 244.222 18.4027 243.955 18.056C243.688 17.7093 243.483 17.2773 243.339 16.76C243.195 16.2427 243.123 15.648 243.123 14.976C243.123 14.3787 243.203 13.824 243.363 13.312C243.523 12.7947 243.752 12.3467 244.051 11.968C244.355 11.5893 244.723 11.2933 245.155 11.08C245.587 10.8613 246.078 10.752 246.627 10.752C247.123 10.752 247.547 10.8373 247.899 11.008C248.251 11.1733 248.566 11.408 248.843 11.712V7.216H250.267V19H249.419ZM246.659 17.96C247.123 17.96 247.528 17.8533 247.875 17.64C248.227 17.4267 248.55 17.1253 248.843 16.736V12.816C248.582 12.464 248.294 12.2187 247.979 12.08C247.67 11.936 247.326 11.864 246.947 11.864C246.19 11.864 245.608 12.1333 245.203 12.672C244.798 13.2107 244.595 13.9787 244.595 14.976C244.595 15.504 244.64 15.9573 244.731 16.336C244.822 16.7093 244.955 17.0187 245.131 17.264C245.307 17.504 245.523 17.68 245.779 17.792C246.035 17.904 246.328 17.96 246.659 17.96Z" fill="#787A80"/>
</svg>
